<?xml version="1.0" encoding="utf-8"?>
<!-- Generator: Adobe Illustrator 22.1.0, SVG Export Plug-In . SVG Version: 6.00 Build 0)  -->
<svg version="1.1" id="Layer_1" xmlns="http://www.w3.org/2000/svg" xmlns:xlink="http://www.w3.org/1999/xlink" x="0px" y="0px"
	 viewBox="0 0 200 200" style="enable-background:new 0 0 200 200;" xml:space="preserve">
<style type="text/css">
	.st0{fill:#FFFFFF;}
	.st1{fill:#4F4F4F;}
</style>
<rect x="14.2" y="106.7" class="st0" width="65.8" height="23.1"/>
<polygon points="14.8,123.9 79.4,123.9 79.4,129.2 14.8,129.2 14.8,126.3 "/>
<polygon points="14.8,107.3 79.4,107.3 79.4,112.5 14.8,112.5 14.8,109.6 "/>
<polygon class="st1" points="47.1,112.5 79.4,112.5 79.4,123.9 47.1,123.9 47.1,112.5 "/>
<polygon class="st0" points="14.8,112.5 47.1,112.5 47.1,123.9 14.8,123.9 14.8,112.5 "/>
<polygon points="117.8,124.3 107,124.3 107,120 115.9,120 115.9,115.4 107,115.4 107,111.8 117.8,111.8 117.8,107.2 101.4,107.2 
	101.4,129.1 117.8,129.1 "/>
<path d="M92.2,122.8c0,2-1,2-1.4,2c-1.1,0-1.6-0.9-1.8-1.7l-0.1-0.6l-5.9,1l0.2,0.7c0.8,3.4,3.4,5.2,7.6,5.2c5,0,7.4-2.4,7.4-7.3
	v-14.9h-6V122.8z"/>
<path d="M127.2,107.2l-7.5,21.9h5.5l1.5-4.5h7.1l1.4,4.5h5.8l-7.5-21.9H127.2z M128.2,120l2.1-6.4l2.1,6.4H128.2z"/>
<path d="M176.2,116c-0.7-0.3-1.4-0.5-2-0.7c-2.5-0.9-3.6-1.3-3.6-2.3c0-1.4,1.9-1.5,2.4-1.5c1.7,0,2.8,0.7,3.6,2.3l0.3,0.5l5.2-1.7
	l-0.3-0.7c-1.3-3.2-4.2-4.9-8.5-4.9c-4.9,0-8.2,2.6-8.2,6.3c0,2.2,1.1,4,3.1,5.1c1.4,0.8,3.1,1.4,4.9,1.9l0.8,0.2
	c2.5,0.8,3,1.4,3,2.3c0,1.4-1.6,2-3.1,2c-1.8,0-3.1-0.8-4.2-2.8l-0.3-0.5l-5.1,2l0.3,0.6c1.6,3.5,4.9,5.3,9.4,5.3
	c5.3,0,8.6-2.6,8.6-6.8C182.5,119,180.3,117.5,176.2,116z"/>
<path d="M156.7,118.9c0,0.3,0,0.5,0,0.8c-0.4-0.6-0.7-1.3-1.1-1.9l-6.9-10.6H143v21.9h5.4v-12c0-0.3,0-0.6,0-0.8
	c0.4,0.7,0.8,1.4,1.2,1.9l7.5,10.9h5.1v-21.9h-5.4V118.9z"/>
<polygon points="14.8,76.4 24,76.4 24,102.4 32.3,102.4 32.3,76.4 41.5,76.4 41.5,69.7 14.8,69.7 "/>
<path d="M58.4,69.3c-9.7,0-15.4,6.3-15.4,16.8c0,10.4,5.9,16.8,15.4,16.8c9.5,0,15.4-6.4,15.4-16.8C73.8,75.6,68.1,69.3,58.4,69.3z
	 M58.4,96c-4.7,0-7.1-3.3-7.1-9.9c0-6.7,2.4-10,7.1-10c4.7,0,7.1,3.4,7.1,10C65.5,92.7,63.1,96,58.4,96z"/>
<polygon points="176.7,69.7 170.5,81.7 164.2,69.7 155.4,69.7 166.2,89.5 166.2,102.4 174.4,102.4 174.4,89.5 185,69.7 "/>
<path d="M102.1,69.7l-5.4,16.6c-0.4,1.2-0.9,2.7-1.4,4.4c-0.3-1.4-0.8-2.9-1.3-4.5l-5.3-16.5H77.9v32.7h7.3V80.2
	c0.2,0.5,0.3,1.1,0.5,1.6l6.4,20.6h6l6.6-20.6c0.2-0.5,0.4-1,0.5-1.6v22.1h7.3V69.7H102.1z"/>
<path d="M142.1,69.7l-5.4,16.6c-0.4,1.2-0.9,2.7-1.4,4.4c-0.3-1.4-0.8-2.9-1.3-4.5l-5.3-16.5h-10.9v32.7h7.3V80.2
	c0.2,0.5,0.3,1.1,0.5,1.6l6.4,20.6h6l6.6-20.6c0.2-0.5,0.4-1,0.5-1.6v22.1h7.3V69.7H142.1z"/>
</svg>
