<?xml version="1.0" encoding="utf-8"?>
<!-- Generator: Adobe Illustrator 22.1.0, SVG Export Plug-In . SVG Version: 6.00 Build 0)  -->
<svg version="1.1" id="Layer_1" xmlns="http://www.w3.org/2000/svg" xmlns:xlink="http://www.w3.org/1999/xlink" x="0px" y="0px"
	 viewBox="0 0 200 200" style="enable-background:new 0 0 200 200;" xml:space="preserve">
<style type="text/css">
	.st0{fill-rule:evenodd;clip-rule:evenodd;fill:#211915;}
</style>
<g>
	<g>
		<polygon class="st0" points="87.7,146 94.4,146 94.4,139.4 87.7,139.4 87.7,146 87.7,146 		"/>
		<g>
			<path class="st0" d="M173.4,162.5c-4.1-0.6-7.7-0.8-7.7-3c0-0.8,0.5-1.7,1.3-2.3c0.7-0.5,2.5-0.7,3.8-0.7c1.3,0,2.6,0.6,3.4,1.5
				c0.5,0.6,1.1,1.5,1.2,2.5l0,0h6.6l0,0c-0.1-2.4-1.2-4.8-3.1-6.1c-1.8-1.3-4.2-3-7.5-3c-3.1,0-6.2,0.1-8.3,1.7
				c-2.1,1.5-3.7,4.1-3.7,6.3c0,1.3-0.1,2.8,0.4,3.8c0.5,0.9,2.1,2.9,3.4,3.6c1.7,1,5.8,1.4,8,2c1.8,0.4,4.1,0.5,4.6,2.4
				c0.3,1.1-0.1,2.1-1,2.7c-0.9,0.6-2.4,1.1-4,1.1c-1.6,0-3.2-0.5-4-1.5c-0.7-0.9-1.1-1.8-1.6-3.3l0,0h-6.6l0,0c0.1,3,1.8,6,3.9,7.7
				c2,1.6,4.7,2.4,8.2,2.4c3.5,0,6.5-0.6,8.7-2.2c2.2-1.6,3.4-4.5,3.4-7c0-2.1-0.6-3.7-1.5-5C179.3,163.6,175.8,162.9,173.4,162.5
				L173.4,162.5L173.4,162.5L173.4,162.5z"/>
			<polygon class="st0" points="87.7,179.4 94.4,179.4 94.4,151.8 87.7,151.8 87.7,179.4 87.7,179.4 			"/>
			<path class="st0" d="M77.9,155.4c-2.5-1.9-5.6-3.3-9.1-3.4c-0.1,0-0.2,0-0.3,0c-7.7,0-13.9,6.2-13.9,13.8
				c0,7.7,6.2,13.9,13.9,13.9c0.1,0,0.2,0,0.3,0c3.5,0,6.6-1.4,9-3.8l0,0l0.1,3.4h6.3v-36.2h-6.3V155.4L77.9,155.4L77.9,155.4z
				 M68.9,174.2L68.9,174.2L68.9,174.2c-4.6,0-8.3-3.7-8.3-8.3c0-4.5,3.7-8.3,8.3-8.3l0,0h0l0,0c4.5,0,8.3,3.7,8.3,8.3
				C77.2,170.4,73.4,174.2,68.9,174.2L68.9,174.2L68.9,174.2L68.9,174.2z"/>
			<path class="st0" d="M119.4,155.3c-2.5-1.9-5.6-3.3-9.1-3.4c-0.1,0-0.2,0-0.3,0c-7.7,0-13.9,6.3-13.9,13.9
				c0,7.7,6.3,13.9,13.9,13.9c0.1,0,0.2,0,0.3,0c3.5-0.1,6.6-1.5,9-3.9l0,0v3.4h6.3v-36.2h-6.3L119.4,155.3L119.4,155.3L119.4,155.3
				z M110.3,174.1c-4.6,0-8.3-3.8-8.3-8.3c0-4.5,3.8-8.2,8.3-8.2c4.5,0,8.3,3.7,8.3,8.2C118.6,170.3,114.8,174.1,110.3,174.1
				L110.3,174.1L110.3,174.1L110.3,174.1z"/>
			<path class="st0" d="M45.7,151.8v2.6l0,0c-1.3-1.4-1.9-1.8-3.4-2.4c-1.3-0.5-3.2-0.9-4.9-1c-0.1,0-0.2,0-0.3,0
				c-2.1,0-4,0.3-5.7,1c-1.6,0.7-3.2,1.8-4.6,3.3c-1.2,1.3-2.2,2.9-3,4.6c-0.6,1.7-1,3.5-1,5.4c0,4.2,1.4,7.7,4.2,10.4
				c2.7,2.8,6.2,4.2,10.3,4.2c0,0,0,0,0.1,0c1.7,0,3.5-0.5,5-1c1.5-0.5,2.6-1,3.3-2l0,0v2.5l6.4,0l0-27.7L45.7,151.8L45.7,151.8
				L45.7,151.8z M37.5,173.7C37.4,173.7,37.4,173.7,37.5,173.7c-4.6,0-8.3-3.7-8.3-8.2c0-4.5,3.7-8.2,8.2-8.2c0,0,0,0,0.1,0
				c4.5,0,8.2,3.7,8.2,8.2C45.7,170,42,173.7,37.5,173.7L37.5,173.7L37.5,173.7L37.5,173.7z"/>
			<path class="st0" d="M150.6,151.7l0,2.6l0,0c-1.3-1.3-1.9-1.8-3.4-2.4c-1.4-0.5-3.2-0.9-4.9-0.9c-0.1,0-0.2,0-0.3,0
				c-2.1,0-4,0.3-5.7,1c-1.7,0.7-3.2,1.8-4.5,3.3c-1.3,1.3-2.3,2.9-3,4.6c-0.6,1.7-1,3.5-1,5.4c0,4.2,1.4,7.7,4.2,10.4
				c2.7,2.7,6.2,4.2,10.3,4.2c1.7,0,3.6-0.4,5-1c1.5-0.5,2.6-1,3.3-2l0,0v2.5l6.4,0l-0.1-27.7H150.6L150.6,151.7L150.6,151.7z
				 M142.3,173.7c-4.5,0-8.3-3.7-8.3-8.3c0-4.5,3.7-8.2,8.3-8.2c4.6,0,8.3,3.7,8.3,8.2C150.6,170,146.9,173.7,142.3,173.7
				L142.3,173.7L142.3,173.7L142.3,173.7z"/>
		</g>
	</g>
	<path class="st0" d="M88.6,117h-31l0,0c9.3,5.7,20.1,9.6,32.5,12.1l0,0L88.6,117L88.6,117L88.6,117L88.6,117z"/>
	<path class="st0" d="M112.2,117l-1.9,11.4l0,0c12.4-2.3,23.3-5.9,32.8-11.4l0,0H112.2L112.2,117L112.2,117L112.2,117z"/>
	<path class="st0" d="M108.7,116.9l-17.1,0l0,0c2.4,5,5.4,9.2,8.9,13.2C104,126.1,106.3,121.8,108.7,116.9L108.7,116.9L108.7,116.9
		L108.7,116.9L108.7,116.9z"/>
	<path class="st0" d="M153.2,111.4l-106-0.1l0,0c-3.5-2.8-5.9-4.3-8.8-8l0,0h123.7l0,0C159.3,106.3,156.2,109.1,153.2,111.4
		L153.2,111.4L153.2,111.4L153.2,111.4L153.2,111.4z"/>
	<path class="st0" d="M167.8,96.8L35.6,96.8l0,0c-1.8-2.5-3.8-5.9-5.1-8.7l0,0h142.4l0,0C171.6,91.2,169.8,94.1,167.8,96.8
		L167.8,96.8L167.8,96.8L167.8,96.8L167.8,96.8z"/>
	<path class="st0" d="M74.1,81.9l-45.1,0l0,0c-4.1-9.6-6.7-19.4-8-31.6C44.3,54.4,62.2,63.9,74.1,81.9L74.1,81.9L74.1,81.9
		L74.1,81.9L74.1,81.9z"/>
	<path class="st0" d="M120.4,81.9H83.3l0,0c-0.8-23.9,5.8-48.1,18.6-62.7C114.8,33.4,121.6,57.6,120.4,81.9L120.4,81.9L120.4,81.9
		L120.4,81.9L120.4,81.9z"/>
	<path class="st0" d="M175.4,81.9l-46,0l0,0c12.7-17.9,31-28,54.6-31.6C182.5,62.3,179.8,72.5,175.4,81.9L175.4,81.9L175.4,81.9
		L175.4,81.9z"/>
</g>
</svg>
