<svg width="124" height="80" xmlns="http://www.w3.org/2000/svg" xmlns:xlink="http://www.w3.org/1999/xlink"><defs><path id="a" d="M0 63.8h121.958454V.53627H0z"/></defs><g fill="none" fill-rule="evenodd"><path fill="#1F1410" d="M42.442576 8.701099l-5.554354 14.77957.957192-14.77957H29.54887L17.17931 41.652747h7.797484l5.451373-14.57908-.954552 14.57908H37.8705L50.241379 8.7011zM51.499471 8.701099L38.986207 41.652747h7.8854L59.386207 8.7011z"/><g transform="translate(1 8)"><mask id="b" fill="#fff"><use xlink:href="#a"/></mask><path d="M68.171116 14.089003l11.81793-12.902852-11.317574 30.043032-.500356-17.14018zm52.922569 6.12892c-.170756.042124-16.266863 4.376861-34.831657 9.380304l.922614-2.555034H78.06572l2.995517-7.97181h7.515929l2.312491-6.127604h-7.517252l2.578554-6.926628h7.915684l2.1007-5.481277H72.115722l-8.189689 9.86472 3.781791-9.86472h-7.917008L47.488413 33.42222h7.816407l5.252414-13.753214.361368 13.753214 11.242124-.023694C50.854564 39.137807 30.65501 44.583543 30.65501 44.583543c-11.424794 3.189514-24.451257-3.762125-15.033181-22.496404C4.700037 34.842561-5.60359 51.814248 3.498123 59.630728c8.818443 7.575588 19.840835 3.088155 27.356763.100043 7.51593-2.990745 90.590902-38.865203 90.590902-38.865203.800834-.397538.649933-.896434-.352103-.647644z" fill="#1F1410" mask="url(#b)"/></g></g></svg>