<?xml version="1.0" encoding="utf-8"?>
<!-- Generator: Adobe Illustrator 22.1.0, SVG Export Plug-In . SVG Version: 6.00 Build 0)  -->
<svg version="1.1" id="Layer_1" xmlns="http://www.w3.org/2000/svg" xmlns:xlink="http://www.w3.org/1999/xlink" x="0px" y="0px"
	 viewBox="0 0 200 200" style="enable-background:new 0 0 200 200;" xml:space="preserve">
<style type="text/css">
	.st0{fill-rule:evenodd;clip-rule:evenodd;fill:#211915;}
</style>
<g>
	<path class="st0" d="M107.5,48.3c-0.6,0.1-1.2,2.4-2.4,3.6c-0.9,0.9-2,0.8-2.6,1.9c-0.2,0.4-0.2,1.1-0.4,1.7
		c-0.5,1.3-2.2,1.4-2.2,2.9c0,1.5,1.5,1.8,2.7,2.9c1,0.9,1.1,1.5,2.3,1.9c1,0.3,2.5-0.8,3.9-0.4c1.1,0.3,2.2,0.6,2.5,1.7
		c0.2,1.1,0,2.7-1.4,2.5c-0.5-0.1-2.5-0.7-4.9-0.5c-3,0.3-6.3,1.3-6.6,4.6c-0.2,1.8,2.1,4,4.3,3.6c1.5-0.3,0.8-2.1,1.6-3
		c1.1-1.1,7.2,3.9,12.9,3.9c2.4,0,4.2-0.6,6-2.5c0.2-0.1,0.4-0.4,0.6-0.5c0.2,0,0.7,0.3,0.8,0.4c4.6,3.7,8.1,11.1,25,11.2
		c2.4,0,5.1,1.1,7.3,3.2c2,1.8,3.1,4.7,4.2,7.5c1.7,4.3,4.7,8.5,9.3,13.2c0.2,0.3,4,3.2,4.3,3.4c0,0,0.3,0.7,0.2,1.1
		c-0.1,2.8-0.5,11,5.6,11.3c1.5,0.1,1.1-1,1.1-1.7c0-1.4-0.3-2.8,0.5-4.3c1-2-2.2-2.9-2.1-7.2c0.1-3.2-2.6-2.7-4-5.1
		c-0.8-1.4-1.5-2.2-1.4-3.9c0.3-9.8-2.1-16.2-3.3-17.8c-0.9-1.2-1.7-1.7-0.9-2.2c5.1-3.3,6.2-6.5,6.2-6.5c2.7-6.3,5.1-12.1,8.5-14.7
		c0.7-0.5,2.4-1.8,3.5-2.3c3.1-1.5,4.8-2.4,5.7-3.2c1.4-1.4,2.6-4.3,1.2-6.1c-1.7-2.2-4.7-0.4-6,0.3c-9.3,5.5-10.7,15.3-13.9,20.9
		c-2.6,4.5-6.8,7.8-10.5,8c-2.8,0.2-5.8-0.4-8.8-1.7c-7.3-3.2-11.3-7.4-12.3-8.1c-2-1.5-17.3-16.5-29.6-17.1c0,0-1.5-3.1-1.9-3.1
		c-0.9-0.1-1.8,1.8-2.5,2.1C109.2,50.6,108.1,48.2,107.5,48.3L107.5,48.3z"/>
	<path class="st0" d="M53,137.9c-1.2,0-2.2-1-2.2-2.2l0-38.6H38.1v42.6c0,2.1,1.7,3.8,3.8,3.8h22.3c2.1,0,3.8-1.7,3.8-3.8V97.1H55.1
		l0,38.6C55.1,136.9,54.1,137.9,53,137.9L53,137.9z"/>
	<path class="st0" d="M95.6,97.1H76.3c-2.3,0-4.1,1.9-4.1,4.2v42.2h12.7v-38.7c0-1.2,1-2.1,2.2-2.1c1.2,0,2.1,0.9,2.2,2.1v38.8h12.7
		v-38.8c0-1.2,1-2.1,2.2-2.1c1.2,0,2.2,0.9,2.2,2.1v38.7H119v-42.2c0-2.3-1.9-4.2-4.1-4.2H95.6L95.6,97.1z"/>
	<path class="st0" d="M29.6,131.8H16.7v11.7H4V97.1h25.7c2.3,0,4.1,1.9,4.1,4.2v26.4C33.8,129.9,31.9,131.8,29.6,131.8L29.6,131.8z
		 M21,104.8c0-1.3-1-2.2-2.2-2.2h-2.2v23.5h2.2c1.1,0,2.2-0.9,2.2-2.2V104.8L21,104.8z"/>
	<path class="st0" d="M140.4,143.5v-11.6H136v11.6h-12.7v-42.2c0-2.3,1.9-4.2,4.1-4.2h21.5c2.3,0,4.1,1.9,4.1,4.2v42.2H140.4
		L140.4,143.5z M140.4,126.1v-21.4c0-1.2-1-2.1-2.2-2.1c-1.2,0-2.1,0.9-2.2,2.1v21.3H140.4L140.4,126.1z"/>
</g>
</svg>
