<?xml version="1.0" encoding="utf-8"?>
<!-- Generator: Adobe Illustrator 22.1.0, SVG Export Plug-In . SVG Version: 6.00 Build 0)  -->
<svg version="1.1" id="Layer_1" xmlns="http://www.w3.org/2000/svg" xmlns:xlink="http://www.w3.org/1999/xlink" x="0px" y="0px"
	 viewBox="0 0 200 200" style="enable-background:new 0 0 200 200;" xml:space="preserve">
<style type="text/css">
	.st0{fill-rule:evenodd;clip-rule:evenodd;fill:#211915;}
</style>
<g>
	<path class="st0" d="M154.3,81.7c-2.6,2.9-5.2,5.7-7.7,8.5c-11.1,12.2-22.2,24.5-33.3,36.7c-0.3,0.4-1,0.7-1.5,0.7
		c-11.3,0-22.6,0-33.8,0c-0.3,0-0.5,0-1.1-0.1c14-15.4,27.8-30.6,41.7-45.9c-13.9-15.3-27.7-30.5-41.7-45.9c0.5,0,0.8-0.1,1.1-0.1
		c11.2,0,22.5,0,33.7,0c0.5,0,1.1,0.2,1.4,0.6c13.6,14.9,27.1,29.8,40.7,44.8C153.9,81.3,154.1,81.5,154.3,81.7z"/>
	<path class="st0" d="M76.1,107.4c-2.1-2.9-4.2-5.8-6.3-8.7c-1.4-2-2.9-4-4.3-6c-0.6-0.9-1.1-1.1-2.1-0.7
		c-5.4,1.8-10.8,3.6-16.2,5.3c-0.4,0.1-0.7,0.2-1.4,0.4c1.1-1.5,2-2.8,3-4.1c2.7-3.7,5.4-7.5,8.1-11.2c0.5-0.6,0.4-1,0-1.6
		c-3.5-4.7-6.9-9.4-10.3-14.1c-0.2-0.3-0.4-0.6-0.8-1.2c2.4,0.8,4.4,1.4,6.5,2.1c3.7,1.2,7.5,2.4,11.2,3.7c0.9,0.3,1.4,0.2,2-0.6
		c3.3-4.7,6.7-9.4,10.1-14c0.2-0.3,0.4-0.5,0.8-1c0,0.6,0.1,1,0.1,1.3c0,5.8,0,11.7,0,17.5c0,0.8,0.3,1.1,1,1.3
		c5.6,1.8,11.1,3.6,16.6,5.4c0.3,0.1,0.7,0.2,1.2,0.4c-0.5,0.2-0.8,0.3-1.1,0.4c-5.6,1.8-11.1,3.6-16.7,5.4c-0.8,0.2-1,0.6-1,1.4
		c0,5.8,0,11.6,0,17.4c0,0.4,0,0.7,0,1.1C76.3,107.4,76.2,107.4,76.1,107.4z"/>
	<path class="st0" d="M62.2,151.4c0,1.9,0,3.8,0,5.8c0,1.9,0,3.8,0,5.7c-1.9,0-3.7,0-5.6,0c0-7.1,0-14.1,0-21.3c1.9,0,3.7,0,5.5,0
		c0.3,0,0.6,0.4,0.8,0.7c2.6,3.4,5.2,6.7,7.8,10.1c0.2,0.3,0.5,0.6,0.9,1.1c0-4.1,0-8,0-11.9c1.9,0,3.8,0,5.6,0c0,7.1,0,14.1,0,21.3
		c-2.1,0-4.1,0-6.2,0c-0.3,0-0.5-0.4-0.7-0.7c-2.4-3.4-4.8-6.7-7.3-10.1c-0.2-0.3-0.4-0.5-0.6-0.8C62.3,151.4,62.2,151.4,62.2,151.4
		z"/>
	<path class="st0" d="M52,152.3c0,6.3-5.2,11.4-11.6,11.3c-6.3,0-11.5-5.1-11.5-11.3c0-6.3,5.2-11.4,11.6-11.3
		C46.9,141,52,146.1,52,152.3z M45.9,152.3c0-3-2.4-5.4-5.4-5.4c-3,0-5.4,2.4-5.4,5.4c0,3,2.4,5.4,5.4,5.4
		C43.5,157.7,45.9,155.3,45.9,152.3z"/>
	<path class="st0" d="M137.6,162.9c-2,0-3.8,0-5.6,0c0-7.1,0-14.1,0-21.2c0.2,0,0.5-0.1,0.7-0.1c3.3,0,6.7,0,10,0
		c4.4,0.1,7.5,3.4,7.1,7.6c-0.2,1.8-1.1,3.3-2.4,4.4c-0.3,0.2-0.5,0.4-0.9,0.7c1.4,2.8,2.9,5.6,4.4,8.6c-2.2,0-4.1,0-6.1,0
		c-0.2,0-0.5-0.4-0.6-0.7c-1-1.9-1.9-3.7-2.8-5.7c-0.4-1-1-1.4-2.1-1.3c-0.5,0.1-1,0-1.6,0C137.6,157.8,137.6,160.3,137.6,162.9z
		 M137.6,149.5c1.8,0,3.4,0.1,5,0c0.4,0,1.1-0.6,1.1-1c0-0.4-0.5-1.1-0.9-1.2c-1.8-0.1-3.5-0.1-5.3-0.1
		C137.6,148.1,137.6,148.8,137.6,149.5z"/>
	<path class="st0" d="M125.9,141.7c0,1.9,0,3.7,0,5.6c-3.8,0-7.5,0-11.2,0c0,0.8,0,1.5,0,2.3c3.3,0,6.7,0,10.1,0c0,1.7,0,3.4,0,5.1
		c-3.3,0-6.7,0-10.1,0c0,0.9,0,1.7,0,2.6c3.7,0,7.4,0,11.2,0c0,1.9,0,3.7,0,5.6c-5.6,0-11.3,0-17,0c0-7.1,0-14.1,0-21.2
		C114.5,141.7,120.1,141.7,125.9,141.7z"/>
	<path class="st0" d="M178.1,141.6c5.6,0,11.2,0,16.9,0c0,1.8,0,3.7,0,5.6c-3.7,0-7.4,0-11.2,0c0,0.8,0,1.5,0,2.3
		c3.3,0,6.7,0,10.1,0c0,1.7,0,3.4,0,5.1c-3.3,0-6.6,0-10.1,0c0,0.9,0,1.7,0,2.6c3.7,0,7.4,0,11.2,0c0,1.9,0,3.7,0,5.6
		c-5.6,0-11.2,0-16.9,0C178.1,155.8,178.1,148.8,178.1,141.6z"/>
	<path class="st0" d="M153.8,160.1c1.2-1.4,2.3-2.7,3.3-3.9c1.6,0.7,3,1.5,4.5,2c1.2,0.4,2.6,0.4,3.8,0.4c0.8,0,1.6-0.3,1.7-1.3
		c0.1-1-0.6-1.4-1.4-1.6c-1.3-0.4-2.6-0.7-4-1.1c-1.1-0.3-2.2-0.6-3.2-1.1c-2.2-1-3.6-2.6-3.7-5.1c-0.1-2.5,0.7-4.7,2.9-5.9
		c1.3-0.8,2.9-1.3,4.4-1.5c3.6-0.4,7,0.4,10.1,2.8c-1.1,1.3-2.2,2.7-3.4,4c-0.7-0.3-1.3-0.8-2-1c-1.4-0.4-2.9-0.6-4.4-0.8
		c-0.7-0.1-1.3,0.4-1.4,1.2c-0.1,0.8,0.4,1.3,1,1.5c1.1,0.4,2.2,0.6,3.3,1c1.4,0.4,2.8,0.8,4.2,1.4c2.1,0.9,3.5,2.4,3.6,4.8
		c0.2,2.6-0.7,4.8-3,6.2c-1.2,0.7-2.6,1.3-4,1.4c-4.1,0.5-7.9-0.2-11.4-2.5C154.6,160.8,154.3,160.4,153.8,160.1z"/>
	<path class="st0" d="M93.3,157c0.2-0.4,0.3-0.7,0.4-1.1c1.4-4.5,2.8-8.9,4.2-13.4c0.2-0.7,0.6-1,1.3-1c1.8,0.1,3.6,0,5.5,0
		c-0.2,0.6-0.3,1.1-0.5,1.5c-2,6.3-4.1,12.5-6.1,18.8c-0.3,0.8-0.6,1.1-1.5,1.1c-2.5-0.1-4.9,0-7.4-0.1c-0.3,0-0.9-0.3-1-0.6
		c-2.2-6.7-4.4-13.5-6.6-20.2c0-0.1,0-0.2,0-0.5c1.2,0,2.3,0,3.4,0c1,0,2.2-0.3,2.9,0.2c0.6,0.5,0.7,1.7,1,2.7
		c1.2,3.9,2.4,7.7,3.6,11.6c0.1,0.3,0.3,0.7,0.4,1C93.1,157,93.2,157,93.3,157z"/>
	<path class="st0" d="M26.6,146c-1.7,1.2-3.3,2.3-4.9,3.4c-3.7-3.1-6.7-3.3-9-0.7c-2,2.2-1.8,5.5,0.3,7.5c2.5,2.3,5.6,2,8.6-1
		c0.8,0.6,1.6,1.1,2.5,1.7c0.8,0.6,1.7,1.1,2.6,1.8c-2.7,3.4-6.1,5.1-10.3,4.9c-5.6-0.2-10.5-4.4-11.2-9.6
		c-0.9-6.3,3.6-12.1,9.9-12.9C19.7,140.5,23.9,142.3,26.6,146z"/>
</g>
</svg>
