<?xml version="1.0" encoding="utf-8"?>
<!-- Generator: Adobe Illustrator 22.1.0, SVG Export Plug-In . SVG Version: 6.00 Build 0)  -->
<svg version="1.1" id="Layer_1" xmlns="http://www.w3.org/2000/svg" xmlns:xlink="http://www.w3.org/1999/xlink" x="0px" y="0px"
	 viewBox="0 0 200 200" style="enable-background:new 0 0 200 200;" xml:space="preserve">
<g>
	<g>
		<path d="M150.3,77.3c-3.7,0-6.7-3-6.7-6.7c0-3.7,3-6.7,6.7-6.7c3.7,0,6.7,3,6.7,6.7C157.1,74.3,154,77.3,150.3,77.3 M150.4,57.5
			c-8.9,0-14.8,5.3-14.8,13.2c0,7.5,6.4,13.2,14.8,13.2c8.7,0,14.9-5.4,14.9-13.2C165.2,62.8,159.2,57.5,150.4,57.5"/>
		<path d="M120.4,57.9h-5.3v6.8l3.6,0c2.9,0,5.3,2.5,5.3,5.7c0,3.8-3.1,5.7-5.2,5.8h-6.6V50.8H104v32.1h14.8
			c6.5,0,13.5-4.9,13.5-12.3C132.3,62.7,126.3,57.9,120.4,57.9"/>
		<path d="M46.4,70.4c0-3.2,2.6-5.8,5.7-5.8h6.5l-5.2,8.8h7.8l5.3-8.3v-7.3l-15.7,0c-6.8,0-12.4,5.6-12.4,12.5
			c0,6.9,5.6,12.5,12.4,12.5h15.7v-6.8H52.1C49,76.2,46.4,73.6,46.4,70.4"/>
		<path d="M23,50.8H3v32.1h8V57.8l10.3,0c2.8,0,5.9,1.5,5.9,5.7c0,3.2-2.3,5.7-5.5,5.7l-8,0v6.7h5.6c4.8,0.2,6.9,2.4,6.9,7.1v6.9
			h8.4v-9.1c0-4.8-3.4-7.3-6.7-8.1c5.2-1.8,7.7-5.8,7.7-10.7C35.6,55.1,29.1,50.8,23,50.8"/>
		<path d="M187.4,69.6c5.5-1.7,7.1-4.8,7.1-10.8v-0.9h-8.1v1.4c0,4-1.7,6.9-5.5,6.9l-3.9,0V50.8h-8.2v32.1h8.2v-10h3
			c4.1,0,6.6,2.4,6.6,6.1v3.9h8.2v-3.7C194.8,74.5,192.6,71,187.4,69.6"/>
		<path d="M78.4,70.4c0-3.2,2.6-5.8,5.7-5.8h6.5l-5.2,8.8h7.8l5.3-8.3v-7.3l-15.7,0c-6.8,0-12.4,5.6-12.4,12.5
			c0,6.9,5.6,12.5,12.4,12.5h15.7v-6.8H84.1C81,76.2,78.4,73.6,78.4,70.4"/>
	</g>
	<g>
		<path d="M125.8,117.3c21.1-8.4,34.2-13.3,69-21.8c-18.9,1.2-60.7,4.1-89.5,9.7C105.3,105.3,125.3,117,125.8,117.3"/>
		<path d="M60.2,145.3h27.5c5.5-8.3,10.9-12.3,17.2-16.8c-4.8-1.8-9.6-3.6-14.5-5.4C72.9,130.9,63.1,141.3,60.2,145.3"/>
		<path d="M65.7,115.2c-24.6,8.8-38.2,18.3-47.5,30.1h30.4c3-4.1,14.3-16,35.5-24.3C78.3,119,68.1,115.8,65.7,115.2"/>
		<path d="M78.3,96.7H11c67.9,12.3,100.6,28,153.1,50.3C159.6,143.6,87.2,101,78.3,96.7"/>
	</g>
</g>
</svg>
