<?xml version="1.0" encoding="utf-8"?>
<!-- Generator: Adobe Illustrator 22.1.0, SVG Export Plug-In . SVG Version: 6.00 Build 0)  -->
<svg version="1.1" id="Layer_1" xmlns="http://www.w3.org/2000/svg" xmlns:xlink="http://www.w3.org/1999/xlink" x="0px" y="0px"
	 viewBox="0 0 200 200" style="enable-background:new 0 0 200 200;" xml:space="preserve">
<style type="text/css">
	.st0{fill:#040006;}
</style>
<g>
	<path class="st0" d="M108.8,18.3c-0.1-0.4-0.1-0.8-0.2-1.2c-0.4-5.7,3.9-10.6,9.6-11c5.7-0.4,10.6,3.9,11,9.6
		c0.4,5.7-3.9,10.6-9.6,11c-0.4,0-0.7,0-1.1,0c-0.2,0.1-0.4,0.1-0.6,0.3c-0.6,0.9,1.5,0.7,0.1,4.7c0,0,0,0.4-0.2,0.9
		c-0.1,1.5-0.7,6.1-0.8,8.5c0.3,0.4,0.4,0.5,0.4,1.4c-0.1,1.1-0.4,4-0.8,5.8c-0.4,1.5-1,1.8-1.5,2.2c-0.7,3.2-0.9,5.9-2.7,9.7
		c-0.2,2.9-0.4,3.8-1,5.2c-0.1,4.3,0.2,5-2.7,11.9c-0.8,3.2,0,5.4,0.8,8.8c0.8,3.4,3.1,4.9,3.4,8.4c0.8,8.3,0.6,13.9-1.2,20.4
		l1.6,3.7c1.9,0.9,6.7,3.3,4.1,7.1c3.7,2,9.4,4,14,8c1.9,1.6,3.8,3.3,5.6,5.2c3.4,0.5,3,0.8,5.5,2.3c7.4,4.5,19.1,13.5,26,19.8
		c1.2,0.7,1.7,1.2,2.6,1.7c0.1,0.3,0.2,0.4,0.2,0.4c-0.3,0.8-0.3,0.9-0.6,1.5c0.4,0.4,1.1,0.8,1.5,1.1c0.4,0.1,0.4-0.1,1-0.2
		c0.9,0.8,1.9,1.5,2.3,1.4c1.2-0.3,1-0.1,1.9-1.2c0.4-0.4,0.9,0,0.9,0c0.4-0.4,1.2-1.3,2.2-1.9c0.8-0.5,2.5-0.6,2.5-0.6
		c0.5,0,0.4,0.6,0.4,0.7c-0.6,0.3-1.9,0.7-2.6,1.2c-1.6,1.6-2.8,3.8-2.8,3.8c3.2-0.4,5.1,0.4,7.8,0.1c1.4-0.1,2.5,0,4-1.1
		c0,0,1.5-1,2.8-1.6c1.3-0.6,2.5-0.3,3.6,0.6c0.8,0.9,1.3,0.9,0.1,2.2c-0.4,0.5-1.1,1-1.9,1.8c-1.4,1.4-3.3,3.2-5.2,4.8
		c-2,1.5-4.2,2.9-5.6,3.6c-3.5,2.5-2.7,1.9-5.5,4.4c-0.4,0.3-1.3,0.9-1.7,1.2c-1.1,0.7-1.4,0.1-2.2-1.2c0,0-0.3-0.5-0.9-1.5
		c-0.6-1.1-1-2.5-0.9-2.4c-0.7-0.1-3.6-3.6-3.6-4.3c-0.6-0.1-3.3-2.7-3.4-3.2l-2.4-1.9c-2.7,0.6-3.3-1.1-10.5-6.2
		c-0.8,0-2.1-0.5-3.9-1.8c-3.2-2.6-11-8.5-12.3-9.1c-1.4-0.7-3.1-1.4-4.1-2.3c-1.6-0.3-2.4-0.4-3.2-0.7c-0.8-0.2-1.5-0.5-3.5-0.8
		c-3.3-0.4-6.7-1.8-9.9-3.4c-1.5-0.7-2.9-1.1-4.2-1.7c-3-1.2-5.5-2.4-7.4-2.8c-0.7-0.1-4.3-1.1-6.2-2.2c-0.6-0.3-1-0.7-1.4-0.7
		c-1-0.2-1.6,0.2-2,0.3c-2.4,1.2-4.6,2.3-6.7,3.4c-1.9,1-3.7,2.1-5.6,3.2c-1.7,1-3.7,1.9-5.7,2.9c0,0-5.7,2.9-8.9,4
		c-2.7,2.2-8.3,6.1-11.7,8c-1.7,0.8-4.9,2.9-6.4,3.3c-0.9,0.7-3.9,2.9-6.3,4.7c-1.9,1.4-3.2,2.6-3.2,2.6c-1.1,1-1,1.4-3,0.6
		c-0.6,0.5-1,0.8-1.4,1c-1.5,1.1-1.6,0.8-2.1,0.8c-1,0.9-1.2,0.4-2.1,1.5c-0.6,0.9,0,0.7-1.2,1.1c-0.3,0.1-0.4,0.4-0.6,0.6
		c-1,0.8-1,3.2-3.4,3.3c-1.4,1-1,2.2-2.1,2.1c0.1,1-1.9,2.5-2.2,2.5c-3.1,1.1-3.3-1.2-6.9,0.5c-0.5,0.2-1.2,0.8-2.1,1
		c-1.6,0.3-3.6,0-4.8-0.9c-1.9-1.4-3.6-4.2-3.6-4.2c-0.6-1.4-0.2-2.3,1.6-3.6c0.8-0.5,0.9-0.9,2.2-1c0.6-0.2,0.5,0.1,1.6-0.3
		c0.7-0.2,0.7-0.1,2-0.2c0.3-0.2,0.7-0.3,1.3-0.5c1.1-0.4,2.1-0.7,2.1-0.7s0.3-0.3,1.3-0.2c0.9-0.4,1.8-0.9,2.2-1
		c-0.1-1.4,0-1.3,0.7-1.9c0.8-0.7,0.9-0.6,1.5-0.1c0.2-0.1,0.4-0.2,0.3-0.4c-0.1-0.7-0.7-1.1-0.5-2.6c-0.3-0.6-0.7-1.4-0.6-1.9
		c0.1-0.5,0.3-0.8,0.6-0.9c0.3-0.2,0.4,0.1,0.6,0.3c0.3,0.4,0.6,1.4,0.6,1.4c0.1,1.2,0.5,2.8,1.7,1.9c0.7-0.7,0.8-2.6,2.3-2.2l1,0.9
		c0.9-0.8,0.9-0.8,1.4-1.2c0,0-0.8-0.8-0.1-1.5c0.5-0.4,1.1-0.8,2.1-1.9c2.9-3.2,4.4-4.6,7.5-7.2c6.3-5.2,13.4-8.8,17.9-10.6
		c1.5-1.9,2.9-3.1,6.2-3.4c3.9-6.6,11.4-12.5,13.1-13.4c1.4-2.5,2-2.3,3.8-2.8c1.4-1.2,1.8-1.2,2.4-2.4c0.6-2.5-1.4-9.2,3.9-9.5
		c1.1-1.6,0.8-1.2,2.1-2.7c-0.8-2.1-1.2-3.8-1.4-5.4c0-0.2-2.1-1.6-1.5-3.5c-0.9-1-2.5-3.5-3-4.6c-0.2,0-0.4-0.1-0.7-0.1
		c-0.3,0-0.6,0-1-0.1c-0.8,2.1-1.7,2.3-3.2,2.8c-2.6,5.6-3.5,8-11,12.6c-2.9,3.3-3.9,7-3.9,6.9c-0.5,1.1-0.3,2.6-0.1,3.4
		c-0.4,1.2-0.3,1.3-0.3,1.3c0.2,0.5,0.6,1.1,1.1,1.2c0.9,0.2,1.8,0.2,1.7,1.2c-0.1,1.2-1.7,1-2.5,0.9c-3-0.5-2-2.4-3.9-1.8
		c-1.5,1-2,3.8-4.4,3.4c-0.3-0.2-0.2-0.8,0-1.3c0.3-0.7,0.9-1.3,0.6-1.5c-1.5,0.5-4.6,1.5-4.6,1.5c-1.5,0.4-3-0.3-1.6-1.3
		c0.7-0.3,1.6-0.6,2.8-1.3c0,0,0.6-0.8-0.6-0.4c-1.3,0.5-3.1,0.7-4.5,0.6c0,0-2.8-0.4-3.1-0.6c-0.4-0.2-0.7-1.1,0.2-1.1
		c1.1,0,3.8-0.3,6-0.9c1-0.4,3-1.6,4.1-2.1c0,0,1.2-1.7,1.8-2.1c1.1-1.3,2-2,3-3.3c0.9-2,1.9-5,5.1-9.8c1.4-2.2,3.2-4.8,5.5-7.1
		c0,0,0.6-3.7,3.5-6.3c0.7-1.5,1.6-3.3,2.6-5c0.4-0.6,0.7-1.2,1.1-1.8c0.9-1.4,1.9-4.1,5.4-4.5c0,0,1.5-1.1,2.1-1.9
		c0.9-0.8,0.7-2,1.4-2.8c-1.1-1.1-4-3.2-4.3-6.1c-0.3-3.1,0.8-5.6,2.6-7.5c2.1-2.1,4.2-3.1,6.9-2.9c3.3,0.5,3.9,1.6,5,2.7
		c1,1,1.4,0.4,1.8,1.6c2.8,0.7,2.6,0.4,2.6,2.4c0.4,0.6,1.1,1.1,1.1,2.3c0.9-1.9,1.1-2.3,3.6-4.4c0.6-1.7,1-3.4,1.5-5.1
		c0.5-1.6,1.1-3.2,1.5-4.5c-0.5-3.5,0.5-4.1,1.9-7.1c-0.2-0.4-0.2-0.5-0.1-1.2c0.5-2,1.3-4.7,1.8-6.4c0,0,0.2-0.7,0.9-0.7
		c0.6-2.2,1.5-6.3,1.7-7.1c0.6-2.3,0.2-3-0.3-4.3c-0.2-0.4-0.1-1-0.4-1.5c-0.8-1.3-1.6-3.1-2.2-4.3
		C109.5,21.3,108.9,18.3,108.8,18.3C108.4,16.7,108.8,18.3,108.8,18.3"/>
</g>
</svg>
