<?xml version="1.0" encoding="utf-8"?>
<!-- Generator: Adobe Illustrator 22.1.0, SVG Export Plug-In . SVG Version: 6.00 Build 0)  -->
<svg version="1.1" id="Layer_1" xmlns="http://www.w3.org/2000/svg" xmlns:xlink="http://www.w3.org/1999/xlink" x="0px" y="0px"
	 viewBox="0 0 687 684" style="enable-background:new 0 0 687 684;" xml:space="preserve">
<path d="M660.7,336.8h-38.4c-3.7-9.4-7.9-16.8-29.4-16.8c-14.9,0-21.2,6.1-21.2,12.3c0,6.7,5.3,12.4,21.7,16l34.8,9.3
	c22.8,6.1,33.8,24.2,33.8,43.3c0,10.6-2.3,23.5-12.4,34c-7.5,7.8-18.9,18.2-56.7,18.2c-52,0-69.1-32.9-69.1-52.7h40.5
	c4,14.5,13.9,20,33.6,20c13.6,0,25.4-4.9,25.4-15.3c0-9.9-8.5-13.7-19.5-16.7l-27.5-7.4c-13.2-4-24.3-7.3-32.1-13.9
	c-20.5-17.3-19-48.7,3.3-65c12.3-9,25-13.7,45-13.7c23.6,0,37,6.7,47.6,14C649.5,308.8,660.7,324.4,660.7,336.8 M12,225.8
	c0.3,1.4,80.4,225.4,80.4,225.4h47.8l73.6-186.4h457.1l3.5-39H178.6l-61.1,154.5l-55-154.5H12 M407.3,370.6l59.7,80.6h37.3V291.8
	h-43.1v86.7l-54.1-86.7h-41.3v159.4h41.5V370.6z M676,442.9c0-4.6-3.7-8.4-8.4-8.4c-4.7,0-8.5,3.9-8.5,8.5c0,4.6,3.7,8.4,8.4,8.4
	C672.3,451.4,676,447.5,676,442.9z M675,442.9c0,4.2-3.2,7.6-7.5,7.6c-4.3,0-7.5-3.3-7.5-7.5c0-4.2,3.2-7.6,7.5-7.6
	C671.8,435.3,675,438.7,675,442.9z M671.6,441.1c0-1.9-1.4-3-3.5-3h-4v9h2v-2.9h1.6l1.9,2.9h2.3l-2.2-3.2
	C670.8,443.5,671.6,442.6,671.6,441.1z M669.6,441.2c0,0.8-0.5,1.3-1.5,1.3h-2v-2.6h1.9C669,439.9,669.6,440.3,669.6,441.2z
	 M179.5,451.1h45.8l8.6-24.9h60.7l8.8,24.9h45.1l-57.8-159.4h-48.6L179.5,451.1z M246.8,397.4l17.8-53l17.5,53H246.8z"/>
</svg>
