<?xml version="1.0" standalone="no"?>
<!DOCTYPE svg PUBLIC "-//W3C//DTD SVG 20010904//EN"
 "http://www.w3.org/TR/2001/REC-SVG-20010904/DTD/svg10.dtd">
<svg version="1.0" xmlns="http://www.w3.org/2000/svg"
 width="500.000000pt" height="500.000000pt" viewBox="0 0 500.000000 500.000000"
 preserveAspectRatio="xMidYMid meet">

<g transform="translate(0.000000,500.000000) scale(0.100000,-0.100000)"
fill="#ffffff" stroke="none">
<path d="M1732 4649 c-255 -31 -469 -142 -563 -292 -18 -29 -33 -53 -34 -54
-1 -2 -53 4 -115 12 -63 8 -117 15 -120 15 -4 0 -10 -62 -13 -137 -5 -86 -11
-139 -19 -144 -6 -4 -35 -10 -64 -14 -30 -3 -56 -10 -59 -15 -3 -5 12 -45 35
-89 44 -89 47 -101 25 -101 -17 0 -20 -99 -9 -356 l7 -149 111 -88 c162 -128
246 -148 280 -67 l13 31 63 -75 c34 -42 66 -74 70 -71 4 2 10 61 14 130 8 152
22 195 64 195 36 0 53 -19 96 -107 39 -79 62 -100 176 -159 49 -25 99 -62 143
-106 l67 -67 0 -74 c0 -110 10 -166 31 -177 30 -17 49 13 49 78 0 52 1 55 17
40 14 -14 16 -44 18 -200 2 -190 10 -232 43 -226 33 6 43 48 40 171 -2 64 -2
117 -2 117 1 0 27 -31 58 -70 l57 -70 -47 -82 c-26 -46 -108 -186 -184 -313
-75 -126 -151 -256 -169 -287 -18 -32 -36 -58 -41 -58 -5 0 -126 53 -147 64
-5 3 -24 458 -20 463 3 3 23 2 45 -2 l39 -6 5 -183 c3 -104 10 -191 16 -203
16 -30 38 -35 64 -13 22 18 23 23 26 224 l3 205 30 32 c33 35 59 112 59 174 0
101 -86 329 -144 384 l-23 21 -12 -42 c-32 -107 -90 -172 -163 -183 -152 -22
-438 180 -647 457 -28 37 -61 74 -73 83 -22 15 -23 15 -30 -12 -13 -56 -28
-383 -28 -619 l0 -241 -39 -26 c-116 -77 -139 -206 -72 -399 38 -109 41 -180
9 -202 -34 -24 -88 -19 -180 15 -155 57 -285 50 -359 -21 -33 -31 -39 -43 -39
-78 0 -83 88 -141 255 -167 269 -43 325 -64 440 -166 126 -112 143 -117 263
-68 103 42 179 43 277 4 131 -52 957 -476 993 -509 10 -10 -2 -15 -55 -25
-120 -24 -183 -71 -183 -136 0 -41 39 -82 89 -91 20 -4 106 0 191 9 304 34
352 23 475 -102 107 -110 147 -112 305 -19 192 114 397 183 665 224 86 14 170
17 389 16 227 -1 286 2 315 14 117 49 106 136 -26 196 -103 46 -99 59 48 154
135 87 144 104 114 209 -20 66 -12 86 59 164 30 32 62 71 71 85 10 15 20 25
22 22 3 -3 9 -77 13 -165 8 -169 25 -232 62 -239 37 -7 40 31 29 339 -11 297
-23 395 -57 461 -36 70 -219 267 -314 339 -140 105 -245 146 -413 160 -147 12
-201 32 -295 107 -53 42 -94 65 -143 81 -55 18 -75 30 -101 63 -83 102 -105
122 -168 151 -81 36 -123 68 -161 120 -36 50 -75 77 -110 77 -32 0 -79 35 -79
59 0 11 -44 48 -120 101 -67 46 -159 112 -206 147 -47 34 -87 63 -90 63 -4 0
-44 -86 -44 -94 0 -2 27 -6 61 -10 80 -8 113 -24 117 -57 5 -44 -18 -53 -103
-40 -119 17 -111 21 -138 -66 -14 -43 -28 -92 -31 -109 -10 -47 -40 -70 -71
-56 -33 15 -33 56 -1 157 l24 76 -31 -6 c-18 -4 -65 -22 -105 -41 -84 -39
-112 -35 -112 16 0 23 8 35 38 54 43 28 137 61 202 71 l45 7 34 79 33 80 -59
62 c-33 34 -65 72 -72 85 -12 22 -13 22 -52 -35 -21 -32 -39 -60 -39 -64 0 -3
20 -15 44 -26 92 -45 138 -107 104 -141 -20 -20 -43 -14 -112 33 -37 25 -74
45 -82 45 -16 0 -77 -122 -89 -178 -9 -44 -38 -59 -72 -37 -22 15 -25 21 -19
57 4 23 22 74 41 114 33 72 33 73 12 80 -11 3 -61 7 -111 7 -50 0 -97 4 -103
10 -21 16 -16 65 9 78 19 10 148 8 255 -4 16 -1 35 14 70 58 53 65 75 76 103
50 18 -16 17 -13 -2 36 -35 90 -30 199 20 405 90 366 37 493 -170 409 -83 -34
-125 -32 -176 5 -23 17 -42 34 -42 39 0 5 -12 11 -27 13 -20 2 -53 -13 -118
-54 -92 -60 -127 -70 -143 -42 -8 14 -10 12 -16 -10 -7 -28 8 -66 25 -66 20 0
54 23 124 83 39 34 77 67 86 74 13 11 21 5 56 -43 l41 -56 -30 -69 -31 -69
-128 0 -128 0 -65 123 c-82 154 -81 153 -59 161 42 16 164 37 251 43 92 6 102
11 83 42 -12 18 -107 23 -209 10z m-194 -125 c-3 -22 -11 -29 -60 -44 -31 -10
-76 -29 -100 -43 -42 -24 -127 -108 -158 -154 -11 -17 -21 -21 -37 -17 -32 9
-29 24 21 91 73 100 220 190 314 192 19 1 23 -3 20 -25z m82 -199 c53 -127 61
-140 82 -138 13 2 76 12 142 24 130 22 178 20 238 -14 65 -36 114 -131 132
-258 l7 -46 -41 -18 c-22 -10 -40 -21 -40 -24 0 -3 19 -19 41 -34 45 -33 45
-52 1 -99 -38 -41 -50 -36 -58 28 l-7 56 -34 -61 c-21 -38 -41 -61 -51 -61
-11 0 -29 21 -47 54 -16 30 -33 52 -37 50 -4 -3 -8 -23 -8 -45 l0 -40 -31 16
c-41 22 -109 84 -109 100 0 8 8 16 18 19 9 4 28 16 42 27 l25 20 -63 -4 c-73
-4 -70 -7 -117 118 -41 110 -85 183 -142 235 -51 46 -139 90 -183 90 -28 0
-34 19 -13 42 40 45 158 111 186 104 5 -1 35 -64 67 -141z m1318 -1197 c19
-19 14 -42 -23 -104 -53 -87 -47 -94 35 -39 60 40 70 42 94 16 35 -39 -12 -92
-121 -137 l-58 -23 0 -53 0 -53 85 -2 85 -2 51 62 c52 64 89 82 120 56 23 -19
16 -46 -22 -89 l-36 -40 126 0 c70 0 136 -5 147 -10 25 -14 26 -66 1 -79 -12
-6 -81 -8 -180 -4 l-162 6 -29 -65 c-33 -72 -52 -86 -87 -63 -28 18 -29 33 -9
82 8 19 15 37 15 39 0 12 -89 2 -100 -11 -17 -20 -43 -19 -64 4 -16 18 -46
133 -46 182 0 26 -1 27 -71 27 -76 1 -99 12 -99 47 0 35 20 44 104 47 l79 3
12 40 c15 50 40 100 72 143 25 33 59 42 81 20z m-1961 -245 c64 -93 152 -209
194 -259 l76 -91 5 -236 c6 -228 5 -236 -13 -227 -10 6 -78 58 -151 116 -73
58 -159 122 -191 142 l-58 37 5 239 c3 132 6 286 6 343 0 56 2 103 4 103 3 0
58 -75 123 -167z m2495 -358 c62 -25 226 -91 363 -146 422 -168 500 -224 338
-245 -29 -3 -53 -8 -53 -10 0 -2 15 -25 33 -51 58 -82 95 -155 126 -250 35
-104 38 -131 14 -140 -26 -10 -48 27 -78 137 -25 87 -31 101 -48 98 -19 -3
-20 -10 -18 -80 1 -45 -2 -78 -7 -78 -6 0 -29 47 -52 105 -36 89 -46 106 -69
113 -53 15 -238 7 -393 -17 -147 -23 -160 -24 -210 -9 -29 8 -62 19 -72 23
-19 8 -19 -1 -15 -381 4 -353 2 -389 -12 -392 -9 -2 -20 5 -24 15 -4 10 -13
158 -22 328 -19 403 -21 408 -197 495 -65 32 -74 40 -102 94 -17 33 -35 61
-41 63 -24 8 -21 -17 11 -78 26 -51 43 -70 84 -95 l52 -32 -32 -6 c-20 -4 -37
-1 -47 8 -24 20 -62 38 -98 47 -28 6 -33 4 -33 -12 0 -10 7 -19 15 -19 17 0
85 -31 85 -39 0 -3 -21 -17 -46 -30 -25 -14 -75 -57 -110 -97 -102 -114 -183
-142 -246 -85 -29 26 -33 35 -32 78 1 67 22 101 134 219 54 57 153 173 219
258 119 152 163 197 231 231 59 30 82 35 162 31 63 -3 97 -12 190 -51z m-2074
-104 c15 -10 47 -28 71 -40 l43 -23 -7 -216 c-4 -119 -9 -218 -10 -220 -2 -2
-34 14 -71 35 l-68 38 5 60 c2 33 3 133 1 223 -1 89 0 162 4 162 3 0 18 -8 32
-19z m-408 -246 c151 -102 322 -206 432 -261 40 -20 74 -37 76 -39 1 -1 6 -64
11 -140 8 -114 13 -141 28 -157 21 -21 48 -16 63 11 5 10 12 63 16 119 4 56
11 102 16 102 5 0 22 -7 37 -15 15 -7 108 -42 206 -75 98 -34 187 -66 197 -71
13 -7 18 -21 18 -55 0 -55 14 -84 40 -84 24 0 40 28 40 69 0 17 3 31 7 31 5 0
49 -20 99 -45 l91 -45 7 -113 c8 -114 15 -137 46 -137 23 0 30 20 37 103 l6
68 25 -23 c34 -32 72 -115 72 -160 0 -24 -8 -46 -23 -64 -20 -23 -34 -28 -86
-32 -137 -10 -354 60 -641 206 -113 58 -299 153 -415 211 -346 175 -493 274
-580 392 -85 116 -103 272 -33 298 38 14 71 -1 208 -94z m2179 -250 c36 -42
61 -88 72 -132 8 -40 0 -41 -39 -8 -32 27 -65 90 -75 143 -8 41 3 41 42 -3z
m1571 -130 c68 -133 49 -209 -75 -303 -264 -200 -881 -381 -1302 -382 l-83 0
0 -89 c0 -49 -4 -101 -9 -114 -11 -28 -46 -41 -72 -27 -20 11 -25 34 -34 147
l-7 82 -216 3 c-243 3 -263 8 -310 79 -22 31 -24 41 -19 129 3 52 12 116 22
141 l16 47 52 -14 c122 -31 427 -73 540 -74 15 0 17 -11 17 -97 0 -54 5 -116
10 -137 13 -58 44 -72 80 -36 18 18 20 33 20 144 l0 124 78 6 c349 28 653 111
914 249 l98 51 43 -21 c25 -12 70 -42 101 -68 32 -26 59 -45 61 -43 31 37 33
136 5 210 -11 29 -20 54 -20 56 0 1 13 2 29 2 25 0 32 -8 61 -65z"/>
</g>
</svg>
